# xmcd
#
# Track frame offsets:
#	150
#	14933
#	26541
#	41585
#	50737
#	67200
#	83058
#	93329
#
# Disc length: 1430 seconds
#
# Revision: 0
# Processed by: cddbd v1.5.2PL0 Copyright (c) Steve Scherf et al.
# Submitted via: dBpowerAMP V4.0
#
DISCID=6c059408
DTITLE=Elana James - Top Secret Bootleg Sampler
DYEAR=1900
DGENRE=
TTITLE0=Twenty Four Hours A Day
TTITLE1=One More Night
TTITLE2=All The World And I
TTITLE3=I Had A Little Mule
TTITLE4=Oh, Baby
TTITLE5=I Got It Bad (And That Ain't Good)
TTITLE6=That Little Ol' Green Valley
TTITLE7=Run Away With Me
EXTD=
EXTT0=
EXTT1=
EXTT2=
EXTT3=
EXTT4=
EXTT5=
EXTT6=
EXTT7=
PLAYORDER=
